<svg width="195" height="37" fill="none" xmlns="http://www.w3.org/2000/svg"><path d="M21.454 22.034l-3.58-3.572 3.58-3.583V7.734L10.736 18.462l10.718 10.727v-7.155z" fill="#F04"/><path d="M0 .562v35.794h35.761V.562H0zm30.643 30.68H5.109V5.677h25.544v25.567h-.01z" fill="#F04"/><path d="M44.636 13.272v-3.023c.118.049.216.078.304.088.235.059.49.088.765.088.902 0 1.52-.353 1.863-1.07l.088-.176L43.391.915h3.726l2.275 5.153h.068L51.382.915h3.726l-4.353 9.245c-.53 1.1-1.158 1.944-1.864 2.513-.706.579-1.598.864-2.667.864-.45 0-.843-.04-1.176-.128l-.412-.137zM57.688 13.36V.915h3.373v4.534h4.53V.915h3.374V13.36h-3.373V8.649h-4.53v4.71h-3.374zM73.133 13.36V.915h3.373v6.84L81.83.916h2.932V13.36H81.39V6.52l-5.324 6.84h-2.932zM88.938 13.36V.915h5.5c1.364 0 2.423.314 3.197.942.765.628 1.157 1.414 1.157 2.346 0 .844-.313 1.531-.94 2.061-.236.206-.55.373-.923.52.461.167.873.383 1.246.658.833.638 1.245 1.452 1.245 2.453 0 .982-.402 1.806-1.206 2.474-.804.667-1.912.99-3.324.99h-5.952zm3.373-7.646h1.863c.353 0 .637-.098.843-.294.206-.196.314-.452.314-.775 0-.324-.108-.58-.314-.776-.206-.196-.49-.294-.843-.294h-1.863v2.14zm0 4.976h2.304c.392 0 .706-.117.961-.353.245-.236.373-.53.373-.893 0-.353-.128-.648-.373-.893-.245-.236-.569-.354-.96-.354H92.31v2.493zM102.794 13.36V.915h9.501v3.023h-6.128v1.776h4.707v2.847h-4.707v1.776h6.305v3.023h-9.678zM115.933 13.36V.915h5.59c1.363 0 2.471.412 3.334 1.237.862.824 1.284 1.864 1.284 3.12 0 1.257-.431 2.297-1.284 3.122-.863.824-1.971 1.236-3.334 1.236h-2.216v3.73h-3.374zm3.374-6.753h2.039a1.39 1.39 0 001-.402c.275-.265.422-.579.422-.932 0-.354-.137-.668-.422-.933a1.407 1.407 0 00-1-.402h-2.039v2.67zM139.191 9.002l2.04 2.306a6.784 6.784 0 01-1.383 1.207c-1.157.795-2.5 1.188-4.03 1.188-1.981 0-3.628-.638-4.942-1.914-1.324-1.276-1.981-2.827-1.981-4.662s.657-3.396 1.981-4.662C132.2 1.19 133.847.551 135.818.551c1.49 0 2.824.403 3.991 1.207.519.364.961.766 1.333 1.188l-2.039 2.306a6.362 6.362 0 00-.902-.795c-.765-.53-1.559-.795-2.383-.795-.971 0-1.795.334-2.461 1.002-.667.667-1.001 1.491-1.001 2.463s.334 1.796 1.001 2.463c.666.668 1.49 1.002 2.461 1.002.804 0 1.608-.265 2.412-.795.353-.226.677-.491.961-.795zM144.34 13.36V.915h3.373v6.84l5.324-6.84h2.932V13.36h-3.373V6.52l-5.324 6.84h-2.932zM162.54 13.36V3.938h-3.461V.915h10.296v3.023h-3.461v9.422h-3.374zM172.482 13.36V.915h9.502v3.023h-6.129v1.776h4.707v2.847h-4.707v1.776h6.305v3.023h-9.678zM188.022 13.36V3.938h-3.461V.915h10.296v3.023h-3.462v9.422h-3.373zM58.561 29.356l3.118 3.533a10.3 10.3 0 01-2.118 1.845c-1.775 1.217-3.824 1.816-6.158 1.816-3.02 0-5.54-.972-7.56-2.915-2.02-1.943-3.02-4.318-3.02-7.125 0-2.807 1.01-5.183 3.02-7.126 2.02-1.943 4.54-2.915 7.56-2.915 2.275 0 4.315.619 6.11 1.845.793.56 1.47 1.168 2.039 1.816l-3.118 3.533a9.154 9.154 0 00-1.383-1.227c-1.177-.814-2.383-1.216-3.638-1.216-1.48 0-2.736.51-3.756 1.53-1.02 1.021-1.53 2.277-1.53 3.76 0 1.481.51 2.738 1.53 3.758 1.02 1.021 2.275 1.532 3.756 1.532 1.226 0 2.461-.403 3.687-1.217a9.402 9.402 0 001.461-1.227zM63.936 36.011v-19.01h5.158v10.452L77.233 17h4.471v19.011h-5.158V25.56L68.407 36.01h-4.47zM85.575 36.011v-19.01h5.158v6.929h6.913V17h5.157v19.011h-5.157v-7.194h-6.913v7.194h-5.158zM106.688 36.011v-19.01H121.2v4.612h-9.354v2.719h7.187v4.348h-7.187v2.718h9.629v4.613h-14.787zM124.27 36.011v-19.01h8.541c2.079 0 3.775.628 5.089 1.884 1.314 1.256 1.971 2.846 1.971 4.77 0 1.923-.657 3.504-1.971 4.77-1.314 1.256-3.01 1.884-5.089 1.884h-3.393v5.702h-5.148zm5.148-10.325h3.118c.598 0 1.108-.206 1.53-.608.422-.412.637-.883.637-1.423s-.215-1.02-.637-1.423c-.422-.413-.932-.609-1.53-.609h-3.118v4.063zM142.657 36.011v-19.01h13.296v4.887h-8.138v14.123h-5.158zM158.208 36.011v-19.01h5.157v10.452L171.504 17h4.471v19.011h-5.157V25.56l-8.139 10.452h-4.471zM178.36 36.011l3.932-7.056a5.112 5.112 0 01-1.628-1.198c-1.088-1.09-1.627-2.503-1.627-4.24 0-1.845.647-3.395 1.951-4.642C182.292 17.63 183.949 17 185.95 17h8.952v19.011h-5.158v-5.977h-2.843l-3.118 5.977h-5.423zm7.874-10.59h3.53v-3.798h-3.53c-.598 0-1.089.177-1.461.54-.383.363-.569.815-.569 1.354 0 .54.186.992.569 1.355.372.363.863.55 1.461.55z" fill="#181940"/></svg>